<?xml version="1.0" encoding="UTF-8" standalone="no"?>
<!-- Created with Inkscape (http://www.inkscape.org/) -->

<svg
   width="1024"
   height="1024"
   viewBox="0 0 270.93333 270.93333"
   version="1.1"
   id="svg1"
   xml:space="preserve"
   inkscape:version="1.3.2 (091e20e, 2023-11-25, custom)"
   sodipodi:docname="fizzyengineering.svg"
   inkscape:export-filename="fizzyengineering.png"
   inkscape:export-xdpi="96"
   inkscape:export-ydpi="96"
   xmlns:inkscape="http://www.inkscape.org/namespaces/inkscape"
   xmlns:sodipodi="http://sodipodi.sourceforge.net/DTD/sodipodi-0.dtd"
   xmlns:xlink="http://www.w3.org/1999/xlink"
   xmlns="http://www.w3.org/2000/svg"
   xmlns:svg="http://www.w3.org/2000/svg"><sodipodi:namedview
     id="namedview1"
     pagecolor="#505050"
     bordercolor="#eeeeee"
     borderopacity="1"
     inkscape:showpageshadow="0"
     inkscape:pageopacity="0"
     inkscape:pagecheckerboard="0"
     inkscape:deskcolor="#505050"
     inkscape:document-units="mm"
     inkscape:lockguides="false"
     inkscape:zoom="1.4142136"
     inkscape:cx="788.77759"
     inkscape:cy="496.7425"
     inkscape:window-width="3840"
     inkscape:window-height="2071"
     inkscape:window-x="-9"
     inkscape:window-y="-9"
     inkscape:window-maximized="1"
     inkscape:current-layer="layer1"
     showgrid="false" /><defs
     id="defs1"><linearGradient
       id="linearGradient41"
       inkscape:swatch="gradient"><stop
         style="stop-color:#333333;stop-opacity:1;"
         offset="0"
         id="stop41" /><stop
         style="stop-color:#333333;stop-opacity:0;"
         offset="1"
         id="stop42" /></linearGradient><linearGradient
       id="linearGradient9"
       inkscape:collect="always"><stop
         style="stop-color:#55ffff;stop-opacity:1;"
         offset="0"
         id="stop9" /><stop
         style="stop-color:#5454ff;stop-opacity:1;"
         offset="0.5"
         id="stop11" /><stop
         style="stop-color:#ff54f1;stop-opacity:1;"
         offset="1"
         id="stop10" /></linearGradient><linearGradient
       inkscape:collect="always"
       xlink:href="#linearGradient9"
       id="linearGradient53"
       x1="0"
       y1="0"
       x2="150"
       y2="-150.00002"
       gradientUnits="userSpaceOnUse"
       gradientTransform="translate(60.525932,210.46667)" /><filter
       id="nnnoise-filter"
       x="0"
       y="0"
       width="1"
       height="1"
       filterUnits="objectBoundingBox"
       primitiveUnits="userSpaceOnUse"
       color-interpolation-filters="linearRGB"><feTurbulence
         type="fractalNoise"
         baseFrequency="0.2"
         numOctaves="4"
         seed="15"
         stitchTiles="stitch"
         x="0%"
         y="0%"
         width="100%"
         height="100%"
         result="turbulence"
         id="feTurbulence1" /><feSpecularLighting
         surfaceScale="10"
         specularConstant="0.4"
         specularExponent="20"
         lighting-color="#ffffff"
         x="0%"
         y="0%"
         width="100%"
         height="100%"
         in="turbulence"
         result="specularLighting"
         id="feSpecularLighting1"><feDistantLight
           azimuth="3"
           elevation="54"
           id="feDistantLight1" /></feSpecularLighting></filter><linearGradient
       inkscape:collect="always"
       xlink:href="#linearGradient9"
       id="linearGradient20"
       x1="-55.649448"
       y1="96.38765"
       x2="96.387657"
       y2="-55.649448"
       gradientUnits="userSpaceOnUse"
       gradientTransform="translate(109.78066,109.78091)" /></defs><g
     inkscape:label="Layer 1"
     inkscape:groupmode="layer"
     id="layer1"><path
       style="fill:none;stroke:url(#linearGradient20);stroke-width:30;stroke-linecap:round;stroke-linejoin:round;stroke-dasharray:none"
       d="m 180.14937,54.099312 5.391,-2.4508 18.1583,-1.7946 4.9393,8.5551 -10.6333,14.8283 -4.818,3.4433 -9.4403,3.7464 4.7674,17.792197 10.0488,-1.475597 5.8941,0.572997 16.623,7.524971 v 9.87866 l -16.623,7.52497 -5.8941,0.573 -10.0488,-1.4756 -4.7674,17.7922 9.4403,3.7464 4.818,3.4433 10.6333,14.8283 -4.9393,8.5551 -18.1583,-1.7946 -5.391,-2.4508 -7.96471,-6.3024 -13.0248,13.0248 6.3024,7.9647 2.4508,5.391 1.7946,18.1583 -8.5551,4.9393 -14.8283,-10.6333 -3.4433,-4.818 -3.7464,-9.4403 -17.7922,4.7674 1.4756,10.0488 -0.573,5.8941 -7.52497,16.623 h -9.87866 l -7.52497,-16.623 -0.573,-5.8941 1.4756,-10.0488 -17.792197,-4.7674 -3.7464,9.4403 -3.4433,4.818 -14.8283,10.6333 -8.5551,-4.9393"
       id="path18"
       sodipodi:nodetypes="cccccccccccccccccccccccccccccccccccccccccccc" /><path
       style="fill:none;stroke:#333333;stroke-width:15;stroke-linecap:round;stroke-linejoin:round;stroke-dasharray:none;stroke-opacity:0.2"
       d="m 180.14937,54.099312 5.391,-2.4508 18.1583,-1.7946 4.9393,8.5551 -10.6333,14.828301 -4.818,3.4433 -9.4403,3.7464 4.7674,17.792196 10.0488,-1.475596 5.8941,0.572996 16.623,7.524981 v 9.87866 l -16.623,7.52497 -5.8941,0.573 -10.0488,-1.4756 -4.7674,17.7922 9.4403,3.7464 4.818,3.4433 10.6333,14.8283 -4.9393,8.5551 -18.1583,-1.7946 -5.391,-2.4508 -7.96471,-6.3024 -13.0248,13.0248 6.3024,7.9647 2.4508,5.391 1.7946,18.1583 -8.5551,4.9393 -14.8283,-10.6333 -3.4433,-4.818 -3.7464,-9.4403 -17.7922,4.7674 1.4756,10.0488 -0.573,5.8941 -7.52497,16.623 h -9.87866 l -7.52497,-16.623 -0.573,-5.8941 1.4756,-10.0488 -17.792197,-4.7674 -3.7464,9.4403 -3.4433,4.818 -14.8283,10.6333 -8.5551,-4.9393"
       id="path18-1"
       sodipodi:nodetypes="cccccccccccccccccccccccccccccccccccccccccccc" /><path
       style="display:inline;fill:none;fill-opacity:0.2;stroke:#ffffff;stroke-width:30;stroke-linecap:butt;stroke-linejoin:round;stroke-dasharray:none;stroke-opacity:1"
       d="M 49.853655,203.69892 V 53.698905 Z"
       id="path5675"
       inkscape:label="F Bar Outline" /><path
       style="display:inline;fill:none;fill-opacity:0.2;stroke:#ffffff;stroke-width:30;stroke-linecap:butt;stroke-linejoin:round;stroke-dasharray:none;stroke-opacity:1"
       d="M 49.643018,53.963488 H 133.67603 Z"
       id="path5677"
       inkscape:label="F Top Outline" /><path
       style="display:inline;fill:none;fill-opacity:0.2;stroke:#ffffff;stroke-width:30;stroke-linecap:butt;stroke-linejoin:round;stroke-dasharray:none;stroke-opacity:1"
       d="M 49.853697,128.69892 H 107.38306 Z"
       id="path5679"
       inkscape:label="F Middle Outline" /><path
       style="display:inline;fill:#333333;stroke:#333333;stroke-width:15;stroke-linecap:round;stroke-linejoin:round;stroke-dasharray:none"
       d="M 49.853655,203.69892 V 53.698905 Z"
       id="path36"
       sodipodi:nodetypes="ccc"
       inkscape:label="F Bar" /><path
       id="path52"
       style="display:none;fill:none;stroke:url(#linearGradient53);stroke-width:30;stroke-linecap:round;stroke-linejoin:round;stroke-dasharray:none;stroke-opacity:1"
       inkscape:label="A"
       d="M 93.694731,177.29787 238.80077,129.33266 Z m 66.831199,33.1688 50,-150.000008 z m -99.999998,0 L 210.52593,60.466662 Z m 99.999998,-1e-5 28.78398,-12.80952 z" /><path
       id="path76"
       style="display:none;fill:none;fill-opacity:0.2;stroke:#333333;stroke-width:15;stroke-linecap:round;stroke-linejoin:round;stroke-dasharray:none;stroke-dashoffset:0;stroke-opacity:0.2"
       d="m 160.52593,210.46666 28.78398,-12.80952 z m 78.27484,-81.134 -145.106037,47.96521 z m -78.27484,81.13401 50,-150.000008 z m -99.999999,0 L 210.52593,60.466662 Z"
       inkscape:label="A Highlight"
       sodipodi:nodetypes="cccccccccccc" /><path
       style="display:inline;fill:none;fill-opacity:0.2;stroke:#ffffff;stroke-width:30;stroke-linecap:butt;stroke-linejoin:round;stroke-dasharray:none;stroke-opacity:1"
       d="m 78.61838,128.69892 h 28.76468 z"
       id="path5679-7"
       inkscape:label="F Middle Outline"
       sodipodi:nodetypes="ccc" /><path
       style="display:inline;fill:#333333;stroke:#333333;stroke-width:15;stroke-linecap:round;stroke-linejoin:round;stroke-dasharray:none"
       d="M 49.853655,53.698905 H 133.88666 Z"
       id="path37"
       sodipodi:nodetypes="ccc"
       inkscape:label="F Top" /><path
       style="display:inline;fill:#333333;stroke:#333333;stroke-width:15;stroke-linecap:round;stroke-linejoin:round;stroke-dasharray:none;stroke-opacity:1"
       d="M 49.853655,128.69892 H 107.38306 Z"
       id="path46"
       sodipodi:nodetypes="ccc"
       inkscape:label="F Middle" /><path
       style="fill:none;stroke-width:20;stroke-linejoin:round"
       d="M 107.38306,128.69892 H 78.618358"
       id="path973" /></g><g
     inkscape:label="Rendered Gears"
     transform="translate(279.929, 135.599)"
     id="g19" /></svg>
